<svg xmlns="http://www.w3.org/2000/svg" viewBox="0 0 800 800"><g fill="hsl(0, 0%, 100%)" transform="matrix(.8 0 0 .8 79.8 79.9)"><circle r=".5" cx="432" cy="418" opacity=".95"/><circle r=".5" cx="383" cy="435" opacity=".94"/><circle r=".5" cx="363" cy="384" opacity=".94"/><circle r=".5" cx="414" cy="361" opacity=".94"/><circle r=".5" cx="441" cy="413" opacity=".94"/><circle r=".5" cx="389" cy="443" opacity=".93"/><circle r=".5" cx="355" cy="391" opacity=".93"/><circle r=".5" cx="407" cy="353" opacity=".93"/><circle r=".5" cx="449" cy="405" opacity=".93"/><circle r=".5" cx="398" cy="451" opacity=".92"/><circle r=".5" cx="348" cy="400" opacity=".92"/><circle r=".5" cx="397" cy="346" opacity=".92"/><circle r=".5" cx="455" cy="394" opacity=".92"/><circle r=".5" cx="409" cy="456" opacity=".91"/><circle r=".5" cx="343" cy="412" opacity=".91"/><circle r=".5" cx="385" cy="342" opacity=".91"/><circle r=".5" cx="458" cy="381" opacity=".91"/><circle r=".5" cx="422" cy="459" opacity=".9"/><circle r=".5" cx="341" cy="426" opacity=".9"/><circle r=".5" cx="371" cy="341" opacity=".9"/><circle r=".5" cx="459" cy="367" opacity=".9"/><circle r=".5" cx="437" cy="458" opacity=".89"/><circle r=".5" cx="342" cy="441" opacity=".89"/><circle r=".5" cx="356" cy="343" opacity=".89"/><circle r=".5" cx="455" cy="352" opacity=".89"/><circle r=".5" cx="452" cy="454" opacity=".88"/><circle r=".5" cx="348" cy="456" opacity=".88"/><circle r=".5" cx="341" cy="350" opacity=".88"/><circle r=".5" cx="448" cy="337" opacity=".88"/><circle r=".5" cx="467" cy="446" opacity=".87"/><circle r=".5" cx="357" cy="470" opacity=".87"/><circle r=".5" cx="326" cy="360" opacity=".87"/><circle r=".5" cx="437" cy="323" opacity=".87"/><circle r=".5" cx="480" cy="434" opacity=".86"/><circle r=".5" cx="370" cy="483" opacity=".86"/><circle r=".5" cx="314" cy="374" opacity=".86"/><circle r=".5" cx="422" cy="311" opacity=".86"/><circle r=".5" cx="491" cy="418" opacity=".85"/><circle r=".5" cx="386" cy="494" opacity=".85"/><circle r=".5" cx="304" cy="391" opacity=".85"/><circle r=".5" cx="404" cy="302" opacity=".85"/><circle r=".5" cx="499" cy="399" opacity=".84"/><circle r=".5" cx="406" cy="501" opacity=".84"/><circle r=".5" cx="298" cy="411" opacity=".84"/><circle r=".5" cx="383" cy="298" opacity=".83"/><circle r=".5" cx="503" cy="378" opacity=".83"/><circle r=".5" cx="428" cy="503" opacity=".83"/><circle r=".5" cx="297" cy="433" opacity=".83"/><circle r=".5" cx="361" cy="297" opacity=".82"/><circle r=".5" cx="502" cy="355" opacity=".82"/><circle r=".5" cx="451" cy="501" opacity=".82"/><circle r="1" cx="300" cy="456" opacity=".82"/><circle r="1" cx="338" cy="302" opacity=".81"/><circle r="1" cx="496" cy="332" opacity=".81"/><circle r="1" cx="474" cy="493" opacity=".81"/><circle r="1" cx="309" cy="479" opacity=".81"/><circle r="1" cx="315" cy="312" opacity=".8"/><circle r="1" cx="484" cy="310" opacity=".8"/><circle r="1" cx="496" cy="481" opacity=".8"/><circle r="1" cx="324" cy="501" opacity=".8"/><circle r="1" cx="294" cy="328" opacity=".79"/><circle r="1" cx="467" cy="289" opacity=".79"/><circle r="1" cx="515" cy="462" opacity=".79"/><circle r="1" cx="343" cy="520" opacity=".79"/><circle r="1" cx="276" cy="348" opacity=".78"/><circle r="1" cx="446" cy="272" opacity=".78"/><circle r="1" cx="531" cy="440" opacity=".78"/><circle r="1" cx="367" cy="535" opacity=".78"/><circle r="1" cx="262" cy="373" opacity=".77"/><circle r="1" cx="420" cy="260" opacity=".77"/><circle r="1" cx="543" cy="413" opacity=".77"/><circle r="1" cx="394" cy="545" opacity=".77"/><circle r="1" cx="254" cy="402" opacity=".76"/><circle r="1" cx="391" cy="252" opacity=".76"/><circle r="1" cx="548" cy="383" opacity=".76"/><circle r="1" cx="425" cy="549" opacity=".76"/><circle r="1" cx="251" cy="433" opacity=".75"/><circle r="1" cx="360" cy="251" opacity=".75"/><circle r="1" cx="548" cy="352" opacity=".75"/><circle r="1" cx="456" cy="547" opacity=".75"/><circle r="1" cx="255" cy="464" opacity=".74"/><circle r="1" cx="328" cy="257" opacity=".74"/><circle r="1" cx="540" cy="320" opacity=".74"/><circle r="1" cx="488" cy="537" opacity=".74"/><circle r="1" cx="266" cy="496" opacity=".73"/><circle r="1" cx="297" cy="270" opacity=".73"/><circle r="1" cx="526" cy="289" opacity=".73"/><circle r="1" cx="518" cy="521" opacity=".73"/><circle r="1" cx="284" cy="525" opacity=".72"/><circle r="1" cx="268" cy="290" opacity=".72"/><circle r="1" cx="504" cy="261" opacity=".72"/><circle r="1" cx="545" cy="498" opacity=".72"/><circle r="1" cx="309" cy="551" opacity=".71"/><circle r="1" cx="243" cy="316" opacity=".71"/><circle r="1" cx="477" cy="237" opacity=".71"/><circle r="1" cx="568" cy="469" opacity=".71"/><circle r="1" cx="339" cy="572" opacity=".7"/><circle r="1" cx="223" cy="347" opacity=".7"/><circle r="1" cx="444" cy="219" opacity=".7"/><circle r="1" cx="584" cy="435" opacity=".7"/><circle r="1" cx="374" cy="587" opacity=".69"/><circle r="1" cx="210" cy="384" opacity=".69"/><circle r="1" cx="407" cy="208" opacity=".69"/><circle r="1.5" cx="593" cy="397" opacity=".69"/><circle r="1.5" cx="413" cy="595" opacity=".68"/><circle r="1.5" cx="205" cy="423" opacity=".68"/><circle r="1.5" cx="367" cy="205" opacity=".68"/><circle r="1.5" cx="595" cy="357" opacity=".68"/><circle r="1.5" cx="454" cy="594" opacity=".67"/><circle r="1.5" cx="208" cy="464" opacity=".67"/><circle r="1.5" cx="326" cy="210" opacity=".67"/><circle r="1.5" cx="588" cy="316" opacity=".66"/><circle r="1.5" cx="494" cy="584" opacity=".66"/><circle r="1.5" cx="219" cy="504" opacity=".66"/><circle r="1.5" cx="286" cy="224" opacity=".66"/><circle r="1.5" cx="572" cy="276" opacity=".65"/><circle r="1.5" cx="533" cy="566" opacity=".65"/><circle r="1.5" cx="239" cy="543" opacity=".65"/><circle r="1.5" cx="248" cy="246" opacity=".65"/><circle r="1.5" cx="547" cy="240" opacity=".64"/><circle r="1.5" cx="569" cy="540" opacity=".64"/><circle r="1.5" cx="268" cy="577" opacity=".64"/><circle r="1.5" cx="215" cy="276" opacity=".64"/><circle r="1.5" cx="515" cy="208" opacity=".63"/><circle r="1.5" cx="599" cy="506" opacity=".63"/><circle r="1.5" cx="304" cy="606" opacity=".63"/><circle r="1.5" cx="188" cy="314" opacity=".63"/><circle r="1.5" cx="476" cy="183" opacity=".62"/><circle r="1.5" cx="622" cy="465" opacity=".62"/><circle r="1.5" cx="346" cy="627" opacity=".62"/><circle r="1.5" cx="169" cy="357" opacity=".62"/><circle r="1.5" cx="431" cy="166" opacity=".61"/><circle r="1.5" cx="637" cy="419" opacity=".61"/><circle r="1.5" cx="393" cy="639" opacity=".61"/><circle r="1.5" cx="159" cy="405" opacity=".61"/><circle r="1.5" cx="383" cy="158" opacity=".6"/><circle r="1.5" cx="642" cy="371" opacity=".6"/><circle r="1.5" cx="442" cy="642" opacity=".6"/><circle r="1.5" cx="159" cy="454" opacity=".6"/><circle r="1.5" cx="333" cy="161" opacity=".59"/><circle r="1.5" cx="637" cy="320" opacity=".59"/><circle r="1.5" cx="492" cy="634" opacity=".59"/><circle r="1.5" cx="170" cy="504" opacity=".59"/><circle r="1.5" cx="283" cy="174" opacity=".58"/><circle r="1.5" cx="621" cy="271" opacity=".58"/><circle r="1.5" cx="541" cy="615" opacity=".58"/><circle r="1.5" cx="191" cy="552" opacity=".58"/><circle r="1.5" cx="236" cy="198" opacity=".57"/><circle r="1.5" cx="595" cy="225" opacity=".57"/><circle r="1.5" cx="586" cy="587" opacity=".57"/><circle r="1.5" cx="222" cy="596" opacity=".57"/><circle r="1.5" cx="194" cy="231" opacity=".56"/><circle r="1.5" cx="559" cy="185" opacity=".56"/><circle r="1.5" cx="624" cy="549" opacity=".56"/><circle r="2" cx="262" cy="633" opacity=".56"/><circle r="2" cx="159" cy="273" opacity=".55"/><circle r="2" cx="515" cy="151" opacity=".55"/><circle r="2" cx="656" cy="503" opacity=".55"/><circle r="2" cx="310" cy="662" opacity=".55"/><circle r="2" cx="132" cy="323" opacity=".54"/><circle r="2" cx="464" cy="127" opacity=".54"/><circle r="2" cx="677" cy="450" opacity=".54"/><circle r="2" cx="364" cy="681" opacity=".54"/><circle r="2" cx="116" cy="378" opacity=".53"/><circle r="2" cx="408" cy="114" opacity=".53"/><circle r="2" cx="688" cy="393" opacity=".53"/><circle r="2" cx="421" cy="688" opacity=".53"/><circle r="2" cx="112" cy="436" opacity=".52"/><circle r="2" cx="349" cy="112" opacity=".52"/><circle r="2" cx="686" cy="334" opacity=".52"/><circle r="2" cx="481" cy="684" opacity=".52"/><circle r="2" cx="119" cy="496" opacity=".51"/><circle r="2" cx="290" cy="123" opacity=".51"/><circle r="2" cx="673" cy="275" opacity=".51"/><circle r="2" cx="539" cy="667" opacity=".5"/><circle r="2" cx="139" cy="553" opacity=".5"/><circle r="2" cx="233" cy="146" opacity=".5"/><circle r="2" cx="647" cy="219" opacity=".5"/><circle r="2" cx="594" cy="638" opacity=".49"/><circle r="2" cx="171" cy="607" opacity=".49"/><circle r="2" cx="180" cy="180" opacity=".49"/><circle r="2" cx="609" cy="168" opacity=".49"/><circle r="2" cx="643" cy="598" opacity=".48"/><circle r="2" cx="214" cy="654" opacity=".48"/><circle r="2" cx="136" cy="226" opacity=".48"/><circle r="2" cx="561" cy="126" opacity=".48"/><circle r="2" cx="683" cy="548" opacity=".47"/><circle r="2" cx="266" cy="692" opacity=".47"/><circle r="2" cx="100" cy="281" opacity=".47"/><circle r="2" cx="505" cy="93" opacity=".47"/><circle r="2" cx="713" cy="489" opacity=".46"/><circle r="2" cx="326" cy="719" opacity=".46"/><circle r="2" cx="76" cy="342" opacity=".46"/><circle r="2" cx="441" cy="72" opacity=".46"/><circle r="2" cx="731" cy="425" opacity=".45"/><circle r="2" cx="392" cy="733" opacity=".45"/><circle r="2" cx="65" cy="409" opacity=".45"/><circle r="2" cx="374" cy="65" opacity=".45"/><circle r="2" cx="735" cy="357" opacity=".44"/><circle r="2" cx="461" cy="734" opacity=".44"/><circle r="2" cx="68" cy="478" opacity=".44"/><circle r="2" cx="305" cy="71" opacity=".44"/><circle r="2" cx="725" cy="288" opacity=".43"/><circle r="2" cx="529" cy="720" opacity=".43"/><circle r="2" cx="85" cy="546" opacity=".43"/><circle r="2" cx="238" cy="92" opacity=".43"/><circle r="2.5" cx="701" cy="221" opacity=".42"/><circle r="2.5" cx="594" cy="693" opacity=".42"/><circle r="2.5" cx="116" cy="610" opacity=".42"/><circle r="2.5" cx="175" cy="126" opacity=".42"/><circle r="2.5" cx="663" cy="160" opacity=".41"/><circle r="2.5" cx="654" cy="652" opacity=".41"/><circle r="2.5" cx="160" cy="667" opacity=".41"/><circle r="2.5" cx="120" cy="173" opacity=".41"/><circle r="2.5" cx="613" cy="107" opacity=".4"/><circle r="2.5" cx="705" cy="599" opacity=".4"/><circle r="2.5" cx="216" cy="716" opacity=".4"/><circle r="2.5" cx="74" cy="232" opacity=".4"/><circle r="2.5" cx="552" cy="65" opacity=".39"/><circle r="2.5" cx="744" cy="536" opacity=".39"/><circle r="2.5" cx="282" cy="752" opacity=".39"/><circle r="2.5" cx="41" cy="299" opacity=".39"/><circle r="2.5" cx="483" cy="35" opacity=".38"/><circle r="2.5" cx="770" cy="464" opacity=".38"/><circle r="2.5" cx="354" cy="775" opacity=".38"/><circle r="2.5" cx="22" cy="373" opacity=".38"/><circle r="2.5" cx="407" cy="20" opacity=".37"/><circle r="2.5" cx="782" cy="388" opacity=".37"/><circle r="2.5" cx="431" cy="782" opacity=".37"/><circle r="2.5" cx="18" cy="451" opacity=".37"/><circle r="2.5" cx="329" cy="20" opacity=".36"/><circle r="2.5" cx="777" cy="310" opacity=".36"/><circle r="2.5" cx="510" cy="774" opacity=".36"/><circle r="2.5" cx="31" cy="529" opacity=".36"/><circle r="2.5" cx="252" cy="36" opacity=".35"/><circle r="2.5" cx="757" cy="233" opacity=".35"/><circle r="2.5" cx="586" cy="749" opacity=".35"/><circle r="2.5" cx="59" cy="604" opacity=".34"/><circle r="2.5" cx="178" cy="69" opacity=".34"/><circle r="2.5" cx="721" cy="161" opacity=".34"/><circle r="2.5" cx="656" cy="709" opacity=".34"/><circle r="2.5" cx="103" cy="673" opacity=".33"/><circle r="2.5" cx="112" cy="116" opacity=".33"/><circle r="2.5" cx="670" cy="96" opacity=".33"/><circle r="2.5" cx="718" cy="655" opacity=".33"/><circle r="2.5" cx="160" cy="732" opacity=".32"/><circle r="2.5" cx="55" cy="177" opacity=".32"/><circle r="2.5" cx="606" cy="43" opacity=".32"/><circle r="2.5" cx="768" cy="589" opacity=".32"/><circle r="2.5" cx="230" cy="779" opacity=".31"/><circle r="2.5" cx="11" cy="249" opacity=".31"/><circle r="2.5" cx="532" cy="3" opacity=".31"/><circle r="2.5" cx="805" cy="512" opacity=".31"/><circle r="2.5" cx="308" cy="811" opacity=".3"/><circle r="2.5" cx="-17" cy="329" opacity=".3"/><circle r="2.5" cx="450" cy="-22" opacity=".3"/><circle r="2.5" cx="825" cy="428" opacity=".3"/><circle r="3" cx="393" cy="828" opacity=".29"/><circle r="3" cx="-29" cy="415" opacity=".29"/><circle r="3" cx="363" cy="-29" opacity=".29"/><circle r="3" cx="828" cy="341" opacity=".29"/><circle r="3" cx="481" cy="826" opacity=".28"/><circle r="3" cx="-23" cy="503" opacity=".28"/><circle r="3" cx="276" cy="-19" opacity=".28"/><circle r="3" cx="813" cy="254" opacity=".28"/><circle r="3" cx="567" cy="807" opacity=".27"/><circle r="3" cx="1" cy="588" opacity=".27"/><circle r="3" cx="191" cy="10" opacity=".27"/><circle r="3" cx="780" cy="170" opacity=".27"/><circle r="3" cx="649" cy="769" opacity=".26"/><circle r="3" cx="42" cy="669" opacity=".26"/><circle r="3" cx="112" cy="55" opacity=".26"/><circle r="3" cx="731" cy="94" opacity=".26"/><circle r="3" cx="723" cy="716" opacity=".25"/><circle r="3" cx="100" cy="740" opacity=".25"/><circle r="3" cx="44" cy="117" opacity=".25"/><circle r="3" cx="666" cy="29" opacity=".25"/><circle r="3" cx="785" cy="647" opacity=".24"/><circle r="3" cx="172" cy="799" opacity=".24"/><circle r="3" cx="-11" cy="192" opacity=".24"/><circle r="3" cx="588" cy="-23" opacity=".24"/><circle r="3" cx="833" cy="567" opacity=".23"/><circle r="3" cx="255" cy="842" opacity=".23"/><circle r="3" cx="-51" cy="277" opacity=".23"/><circle r="3" cx="500" cy="-58" opacity=".23"/><circle r="3" cx="864" cy="477" opacity=".22"/><circle r="3" cx="347" cy="869" opacity=".22"/><circle r="3" cx="-72" cy="370" opacity=".22"/><circle r="3" cx="406" cy="-75" opacity=".22"/><circle r="3" cx="876" cy="381" opacity=".21"/><circle r="3" cx="443" cy="876" opacity=".21"/><circle r="3" cx="-75" cy="467" opacity=".21"/><circle r="3" cx="309" cy="-72" opacity=".21"/><circle r="3" cx="868" cy="284" opacity=".2"/><circle r="3" cx="540" cy="863" opacity=".2"/><circle r="3" cx="-57" cy="564" opacity=".2"/><circle r="3" cx="213" cy="-49" opacity=".2"/><circle r="3" cx="841" cy="190" opacity=".19"/><circle r="3" cx="633" cy="831" opacity=".19"/><circle r="3" cx="-20" cy="656" opacity=".19"/><circle r="3" cx="123" cy="-7" opacity=".19"/><circle r="3" cx="794" cy="101" opacity=".18"/><circle r="3" cx="719" cy="780" opacity=".18"/><circle r="3" cx="36" cy="739" opacity=".18"/><circle r="3" cx="42" cy="53" opacity=".17"/><circle r="3" cx="730" cy="23" opacity=".17"/><circle r="3" cx="794" cy="711" opacity=".17"/><circle r="3" cx="108" cy="811" opacity=".17"/><circle r="3.5" cx="-26" cy="129" opacity=".16"/><circle r="3.5" cx="650" cy="-41" opacity=".16"/><circle r="3.5" cx="854" cy="628" opacity=".16"/><circle r="3.5" cx="195" cy="867" opacity=".16"/><circle r="3.5" cx="-78" cy="218" opacity=".15"/><circle r="3.5" cx="558" cy="-88" opacity=".15"/><circle r="3.5" cx="897" cy="533" opacity=".15"/><circle r="3.5" cx="292" cy="904" opacity=".15"/><circle r="3.5" cx="-111" cy="317" opacity=".14"/><circle r="3.5" cx="457" cy="-116" opacity=".14"/><circle r="3.5" cx="919" cy="431" opacity=".14"/><circle r="3.5" cx="396" cy="922" opacity=".14"/><circle r="3.5" cx="-123" cy="422" opacity=".13"/><circle r="3.5" cx="351" cy="-123" opacity=".13"/><circle r="3.5" cx="921" cy="324" opacity=".13"/><circle r="3.5" cx="502" cy="918" opacity=".13"/><circle r="3.5" cx="-113" cy="529" opacity=".12"/><circle r="3.5" cx="245" cy="-108" opacity=".12"/><circle r="3.5" cx="901" cy="219" opacity=".12"/><circle r="3.5" cx="607" cy="892" opacity=".12"/><circle r="3.5" cx="-82" cy="633" opacity=".11"/><circle r="3.5" cx="143" cy="-71" opacity=".11"/><circle r="3.5" cx="859" cy="118" opacity=".11"/><circle r="3.5" cx="706" cy="845" opacity=".11"/><circle r="3.5" cx="-30" cy="729" opacity=".1"/><circle r="3.5" cx="49" cy="-14" opacity=".1"/></g></svg>