<svg xmlns="http://www.w3.org/2000/svg" version="1.1" xmlns:xlink="http://www.w3.org/1999/xlink" xmlns:svgjs="http://svgjs.dev/svgjs" viewBox="0 0 800 800"><g fill="hsl(0, 0%, 100%)" transform="matrix(0.8,0,0,0.8,79.79999999999995,79.90001220703124)"><circle r="0" cx="405" cy="400" opacity="1.00"></circle><circle r="0" cx="400" cy="407" opacity="1.00"></circle><circle r="0" cx="392" cy="401" opacity="0.99"></circle><circle r="0" cx="399" cy="391" opacity="0.99"></circle><circle r="0" cx="411" cy="398" opacity="0.99"></circle><circle r="0" cx="403" cy="412" opacity="0.99"></circle><circle r="0" cx="387" cy="404" opacity="0.98"></circle><circle r="0" cx="395" cy="385" opacity="0.98"></circle><circle r="0" cx="416" cy="393" opacity="0.98"></circle><circle r="0" cx="408" cy="417" opacity="0.98"></circle><circle r="0" cx="382" cy="410" opacity="0.97"></circle><circle r="0" cx="388" cy="382" opacity="0.97"></circle><circle r="0" cx="419" cy="387" opacity="0.97"></circle><circle r="0" cx="415" cy="420" opacity="0.97"></circle><circle r="0" cx="380" cy="417" opacity="0.96"></circle><circle r="0" cx="381" cy="380" opacity="0.96"></circle><circle r="0" cx="420" cy="379" opacity="0.96"></circle><circle r="0" cx="423" cy="420" opacity="0.96"></circle><circle r="0" cx="380" cy="426" opacity="0.95"></circle><circle r="0" cx="372" cy="381" opacity="0.95"></circle><circle r="0" cx="419" cy="370" opacity="0.95"></circle><circle r="0.5" cx="432" cy="418" opacity="0.95"></circle><circle r="0.5" cx="383" cy="435" opacity="0.94"></circle><circle r="0.5" cx="363" cy="384" opacity="0.94"></circle><circle r="0.5" cx="414" cy="361" opacity="0.94"></circle><circle r="0.5" cx="441" cy="413" opacity="0.94"></circle><circle r="0.5" cx="389" cy="443" opacity="0.93"></circle><circle r="0.5" cx="355" cy="391" opacity="0.93"></circle><circle r="0.5" cx="407" cy="353" opacity="0.93"></circle><circle r="0.5" cx="449" cy="405" opacity="0.93"></circle><circle r="0.5" cx="398" cy="451" opacity="0.92"></circle><circle r="0.5" cx="348" cy="400" opacity="0.92"></circle><circle r="0.5" cx="397" cy="346" opacity="0.92"></circle><circle r="0.5" cx="455" cy="394" opacity="0.92"></circle><circle r="0.5" cx="409" cy="456" opacity="0.91"></circle><circle r="0.5" cx="343" cy="412" opacity="0.91"></circle><circle r="0.5" cx="385" cy="342" opacity="0.91"></circle><circle r="0.5" cx="458" cy="381" opacity="0.91"></circle><circle r="0.5" cx="422" cy="459" opacity="0.90"></circle><circle r="0.5" cx="341" cy="426" opacity="0.90"></circle><circle r="0.5" cx="371" cy="341" opacity="0.90"></circle><circle r="0.5" cx="459" cy="367" opacity="0.90"></circle><circle r="0.5" cx="437" cy="458" opacity="0.89"></circle><circle r="0.5" cx="342" cy="441" opacity="0.89"></circle><circle r="0.5" cx="356" cy="343" opacity="0.89"></circle><circle r="0.5" cx="455" cy="352" opacity="0.89"></circle><circle r="0.5" cx="452" cy="454" opacity="0.88"></circle><circle r="0.5" cx="348" cy="456" opacity="0.88"></circle><circle r="0.5" cx="341" cy="350" opacity="0.88"></circle><circle r="0.5" cx="448" cy="337" opacity="0.88"></circle><circle r="0.5" cx="467" cy="446" opacity="0.87"></circle><circle r="0.5" cx="357" cy="470" opacity="0.87"></circle><circle r="0.5" cx="326" cy="360" opacity="0.87"></circle><circle r="0.5" cx="437" cy="323" opacity="0.87"></circle><circle r="0.5" cx="480" cy="434" opacity="0.86"></circle><circle r="0.5" cx="370" cy="483" opacity="0.86"></circle><circle r="0.5" cx="314" cy="374" opacity="0.86"></circle><circle r="0.5" cx="422" cy="311" opacity="0.86"></circle><circle r="0.5" cx="491" cy="418" opacity="0.85"></circle><circle r="0.5" cx="386" cy="494" opacity="0.85"></circle><circle r="0.5" cx="304" cy="391" opacity="0.85"></circle><circle r="0.5" cx="404" cy="302" opacity="0.85"></circle><circle r="0.5" cx="499" cy="399" opacity="0.84"></circle><circle r="0.5" cx="406" cy="501" opacity="0.84"></circle><circle r="0.5" cx="298" cy="411" opacity="0.84"></circle><circle r="0.5" cx="383" cy="298" opacity="0.83"></circle><circle r="0.5" cx="503" cy="378" opacity="0.83"></circle><circle r="0.5" cx="428" cy="503" opacity="0.83"></circle><circle r="0.5" cx="297" cy="433" opacity="0.83"></circle><circle r="0.5" cx="361" cy="297" opacity="0.82"></circle><circle r="0.5" cx="502" cy="355" opacity="0.82"></circle><circle r="0.5" cx="451" cy="501" opacity="0.82"></circle><circle r="1" cx="300" cy="456" opacity="0.82"></circle><circle r="1" cx="338" cy="302" opacity="0.81"></circle><circle r="1" cx="496" cy="332" opacity="0.81"></circle><circle r="1" cx="474" cy="493" opacity="0.81"></circle><circle r="1" cx="309" cy="479" opacity="0.81"></circle><circle r="1" cx="315" cy="312" opacity="0.80"></circle><circle r="1" cx="484" cy="310" opacity="0.80"></circle><circle r="1" cx="496" cy="481" opacity="0.80"></circle><circle r="1" cx="324" cy="501" opacity="0.80"></circle><circle r="1" cx="294" cy="328" opacity="0.79"></circle><circle r="1" cx="467" cy="289" opacity="0.79"></circle><circle r="1" cx="515" cy="462" opacity="0.79"></circle><circle r="1" cx="343" cy="520" opacity="0.79"></circle><circle r="1" cx="276" cy="348" opacity="0.78"></circle><circle r="1" cx="446" cy="272" opacity="0.78"></circle><circle r="1" cx="531" cy="440" opacity="0.78"></circle><circle r="1" cx="367" cy="535" opacity="0.78"></circle><circle r="1" cx="262" cy="373" opacity="0.77"></circle><circle r="1" cx="420" cy="260" opacity="0.77"></circle><circle r="1" cx="543" cy="413" opacity="0.77"></circle><circle r="1" cx="394" cy="545" opacity="0.77"></circle><circle r="1" cx="254" cy="402" opacity="0.76"></circle><circle r="1" cx="391" cy="252" opacity="0.76"></circle><circle r="1" cx="548" cy="383" opacity="0.76"></circle><circle r="1" cx="425" cy="549" opacity="0.76"></circle><circle r="1" cx="251" cy="433" opacity="0.75"></circle><circle r="1" cx="360" cy="251" opacity="0.75"></circle><circle r="1" cx="548" cy="352" opacity="0.75"></circle><circle r="1" cx="456" cy="547" opacity="0.75"></circle><circle r="1" cx="255" cy="464" opacity="0.74"></circle><circle r="1" cx="328" cy="257" opacity="0.74"></circle><circle r="1" cx="540" cy="320" opacity="0.74"></circle><circle r="1" cx="488" cy="537" opacity="0.74"></circle><circle r="1" cx="266" cy="496" opacity="0.73"></circle><circle r="1" cx="297" cy="270" opacity="0.73"></circle><circle r="1" cx="526" cy="289" opacity="0.73"></circle><circle r="1" cx="518" cy="521" opacity="0.73"></circle><circle r="1" cx="284" cy="525" opacity="0.72"></circle><circle r="1" cx="268" cy="290" opacity="0.72"></circle><circle r="1" cx="504" cy="261" opacity="0.72"></circle><circle r="1" cx="545" cy="498" opacity="0.72"></circle><circle r="1" cx="309" cy="551" opacity="0.71"></circle><circle r="1" cx="243" cy="316" opacity="0.71"></circle><circle r="1" cx="477" cy="237" opacity="0.71"></circle><circle r="1" cx="568" cy="469" opacity="0.71"></circle><circle r="1" cx="339" cy="572" opacity="0.70"></circle><circle r="1" cx="223" cy="347" opacity="0.70"></circle><circle r="1" cx="444" cy="219" opacity="0.70"></circle><circle r="1" cx="584" cy="435" opacity="0.70"></circle><circle r="1" cx="374" cy="587" opacity="0.69"></circle><circle r="1" cx="210" cy="384" opacity="0.69"></circle><circle r="1" cx="407" cy="208" opacity="0.69"></circle><circle r="1.5" cx="593" cy="397" opacity="0.69"></circle><circle r="1.5" cx="413" cy="595" opacity="0.68"></circle><circle r="1.5" cx="205" cy="423" opacity="0.68"></circle><circle r="1.5" cx="367" cy="205" opacity="0.68"></circle><circle r="1.5" cx="595" cy="357" opacity="0.68"></circle><circle r="1.5" cx="454" cy="594" opacity="0.67"></circle><circle r="1.5" cx="208" cy="464" opacity="0.67"></circle><circle r="1.5" cx="326" cy="210" opacity="0.67"></circle><circle r="1.5" cx="588" cy="316" opacity="0.66"></circle><circle r="1.5" cx="494" cy="584" opacity="0.66"></circle><circle r="1.5" cx="219" cy="504" opacity="0.66"></circle><circle r="1.5" cx="286" cy="224" opacity="0.66"></circle><circle r="1.5" cx="572" cy="276" opacity="0.65"></circle><circle r="1.5" cx="533" cy="566" opacity="0.65"></circle><circle r="1.5" cx="239" cy="543" opacity="0.65"></circle><circle r="1.5" cx="248" cy="246" opacity="0.65"></circle><circle r="1.5" cx="547" cy="240" opacity="0.64"></circle><circle r="1.5" cx="569" cy="540" opacity="0.64"></circle><circle r="1.5" cx="268" cy="577" opacity="0.64"></circle><circle r="1.5" cx="215" cy="276" opacity="0.64"></circle><circle r="1.5" cx="515" cy="208" opacity="0.63"></circle><circle r="1.5" cx="599" cy="506" opacity="0.63"></circle><circle r="1.5" cx="304" cy="606" opacity="0.63"></circle><circle r="1.5" cx="188" cy="314" opacity="0.63"></circle><circle r="1.5" cx="476" cy="183" opacity="0.62"></circle><circle r="1.5" cx="622" cy="465" opacity="0.62"></circle><circle r="1.5" cx="346" cy="627" opacity="0.62"></circle><circle r="1.5" cx="169" cy="357" opacity="0.62"></circle><circle r="1.5" cx="431" cy="166" opacity="0.61"></circle><circle r="1.5" cx="637" cy="419" opacity="0.61"></circle><circle r="1.5" cx="393" cy="639" opacity="0.61"></circle><circle r="1.5" cx="159" cy="405" opacity="0.61"></circle><circle r="1.5" cx="383" cy="158" opacity="0.60"></circle><circle r="1.5" cx="642" cy="371" opacity="0.60"></circle><circle r="1.5" cx="442" cy="642" opacity="0.60"></circle><circle r="1.5" cx="159" cy="454" opacity="0.60"></circle><circle r="1.5" cx="333" cy="161" opacity="0.59"></circle><circle r="1.5" cx="637" cy="320" opacity="0.59"></circle><circle r="1.5" cx="492" cy="634" opacity="0.59"></circle><circle r="1.5" cx="170" cy="504" opacity="0.59"></circle><circle r="1.5" cx="283" cy="174" opacity="0.58"></circle><circle r="1.5" cx="621" cy="271" opacity="0.58"></circle><circle r="1.5" cx="541" cy="615" opacity="0.58"></circle><circle r="1.5" cx="191" cy="552" opacity="0.58"></circle><circle r="1.5" cx="236" cy="198" opacity="0.57"></circle><circle r="1.5" cx="595" cy="225" opacity="0.57"></circle><circle r="1.5" cx="586" cy="587" opacity="0.57"></circle><circle r="1.5" cx="222" cy="596" opacity="0.57"></circle><circle r="1.5" cx="194" cy="231" opacity="0.56"></circle><circle r="1.5" cx="559" cy="185" opacity="0.56"></circle><circle r="1.5" cx="624" cy="549" opacity="0.56"></circle><circle r="2" cx="262" cy="633" opacity="0.56"></circle><circle r="2" cx="159" cy="273" opacity="0.55"></circle><circle r="2" cx="515" cy="151" opacity="0.55"></circle><circle r="2" cx="656" cy="503" opacity="0.55"></circle><circle r="2" cx="310" cy="662" opacity="0.55"></circle><circle r="2" cx="132" cy="323" opacity="0.54"></circle><circle r="2" cx="464" cy="127" opacity="0.54"></circle><circle r="2" cx="677" cy="450" opacity="0.54"></circle><circle r="2" cx="364" cy="681" opacity="0.54"></circle><circle r="2" cx="116" cy="378" opacity="0.53"></circle><circle r="2" cx="408" cy="114" opacity="0.53"></circle><circle r="2" cx="688" cy="393" opacity="0.53"></circle><circle r="2" cx="421" cy="688" opacity="0.53"></circle><circle r="2" cx="112" cy="436" opacity="0.52"></circle><circle r="2" cx="349" cy="112" opacity="0.52"></circle><circle r="2" cx="686" cy="334" opacity="0.52"></circle><circle r="2" cx="481" cy="684" opacity="0.52"></circle><circle r="2" cx="119" cy="496" opacity="0.51"></circle><circle r="2" cx="290" cy="123" opacity="0.51"></circle><circle r="2" cx="673" cy="275" opacity="0.51"></circle><circle r="2" cx="539" cy="667" opacity="0.50"></circle><circle r="2" cx="139" cy="553" opacity="0.50"></circle><circle r="2" cx="233" cy="146" opacity="0.50"></circle><circle r="2" cx="647" cy="219" opacity="0.50"></circle><circle r="2" cx="594" cy="638" opacity="0.49"></circle><circle r="2" cx="171" cy="607" opacity="0.49"></circle><circle r="2" cx="180" cy="180" opacity="0.49"></circle><circle r="2" cx="609" cy="168" opacity="0.49"></circle><circle r="2" cx="643" cy="598" opacity="0.48"></circle><circle r="2" cx="214" cy="654" opacity="0.48"></circle><circle r="2" cx="136" cy="226" opacity="0.48"></circle><circle r="2" cx="561" cy="126" opacity="0.48"></circle><circle r="2" cx="683" cy="548" opacity="0.47"></circle><circle r="2" cx="266" cy="692" opacity="0.47"></circle><circle r="2" cx="100" cy="281" opacity="0.47"></circle><circle r="2" cx="505" cy="93" opacity="0.47"></circle><circle r="2" cx="713" cy="489" opacity="0.46"></circle><circle r="2" cx="326" cy="719" opacity="0.46"></circle><circle r="2" cx="76" cy="342" opacity="0.46"></circle><circle r="2" cx="441" cy="72" opacity="0.46"></circle><circle r="2" cx="731" cy="425" opacity="0.45"></circle><circle r="2" cx="392" cy="733" opacity="0.45"></circle><circle r="2" cx="65" cy="409" opacity="0.45"></circle><circle r="2" cx="374" cy="65" opacity="0.45"></circle><circle r="2" cx="735" cy="357" opacity="0.44"></circle><circle r="2" cx="461" cy="734" opacity="0.44"></circle><circle r="2" cx="68" cy="478" opacity="0.44"></circle><circle r="2" cx="305" cy="71" opacity="0.44"></circle><circle r="2" cx="725" cy="288" opacity="0.43"></circle><circle r="2" cx="529" cy="720" opacity="0.43"></circle><circle r="2" cx="85" cy="546" opacity="0.43"></circle><circle r="2" cx="238" cy="92" opacity="0.43"></circle><circle r="2.5" cx="701" cy="221" opacity="0.42"></circle><circle r="2.5" cx="594" cy="693" opacity="0.42"></circle><circle r="2.5" cx="116" cy="610" opacity="0.42"></circle><circle r="2.5" cx="175" cy="126" opacity="0.42"></circle><circle r="2.5" cx="663" cy="160" opacity="0.41"></circle><circle r="2.5" cx="654" cy="652" opacity="0.41"></circle><circle r="2.5" cx="160" cy="667" opacity="0.41"></circle><circle r="2.5" cx="120" cy="173" opacity="0.41"></circle><circle r="2.5" cx="613" cy="107" opacity="0.40"></circle><circle r="2.5" cx="705" cy="599" opacity="0.40"></circle><circle r="2.5" cx="216" cy="716" opacity="0.40"></circle><circle r="2.5" cx="74" cy="232" opacity="0.40"></circle><circle r="2.5" cx="552" cy="65" opacity="0.39"></circle><circle r="2.5" cx="744" cy="536" opacity="0.39"></circle><circle r="2.5" cx="282" cy="752" opacity="0.39"></circle><circle r="2.5" cx="41" cy="299" opacity="0.39"></circle><circle r="2.5" cx="483" cy="35" opacity="0.38"></circle><circle r="2.5" cx="770" cy="464" opacity="0.38"></circle><circle r="2.5" cx="354" cy="775" opacity="0.38"></circle><circle r="2.5" cx="22" cy="373" opacity="0.38"></circle><circle r="2.5" cx="407" cy="20" opacity="0.37"></circle><circle r="2.5" cx="782" cy="388" opacity="0.37"></circle><circle r="2.5" cx="431" cy="782" opacity="0.37"></circle><circle r="2.5" cx="18" cy="451" opacity="0.37"></circle><circle r="2.5" cx="329" cy="20" opacity="0.36"></circle><circle r="2.5" cx="777" cy="310" opacity="0.36"></circle><circle r="2.5" cx="510" cy="774" opacity="0.36"></circle><circle r="2.5" cx="31" cy="529" opacity="0.36"></circle><circle r="2.5" cx="252" cy="36" opacity="0.35"></circle><circle r="2.5" cx="757" cy="233" opacity="0.35"></circle><circle r="2.5" cx="586" cy="749" opacity="0.35"></circle><circle r="2.5" cx="59" cy="604" opacity="0.34"></circle><circle r="2.5" cx="178" cy="69" opacity="0.34"></circle><circle r="2.5" cx="721" cy="161" opacity="0.34"></circle><circle r="2.5" cx="656" cy="709" opacity="0.34"></circle><circle r="2.5" cx="103" cy="673" opacity="0.33"></circle><circle r="2.5" cx="112" cy="116" opacity="0.33"></circle><circle r="2.5" cx="670" cy="96" opacity="0.33"></circle><circle r="2.5" cx="718" cy="655" opacity="0.33"></circle><circle r="2.5" cx="160" cy="732" opacity="0.32"></circle><circle r="2.5" cx="55" cy="177" opacity="0.32"></circle><circle r="2.5" cx="606" cy="43" opacity="0.32"></circle><circle r="2.5" cx="768" cy="589" opacity="0.32"></circle><circle r="2.5" cx="230" cy="779" opacity="0.31"></circle><circle r="2.5" cx="11" cy="249" opacity="0.31"></circle><circle r="2.5" cx="532" cy="3" opacity="0.31"></circle><circle r="2.5" cx="805" cy="512" opacity="0.31"></circle><circle r="2.5" cx="308" cy="811" opacity="0.30"></circle><circle r="2.5" cx="-17" cy="329" opacity="0.30"></circle><circle r="2.5" cx="450" cy="-22" opacity="0.30"></circle><circle r="2.5" cx="825" cy="428" opacity="0.30"></circle><circle r="3" cx="393" cy="828" opacity="0.29"></circle><circle r="3" cx="-29" cy="415" opacity="0.29"></circle><circle r="3" cx="363" cy="-29" opacity="0.29"></circle><circle r="3" cx="828" cy="341" opacity="0.29"></circle><circle r="3" cx="481" cy="826" opacity="0.28"></circle><circle r="3" cx="-23" cy="503" opacity="0.28"></circle><circle r="3" cx="276" cy="-19" opacity="0.28"></circle><circle r="3" cx="813" cy="254" opacity="0.28"></circle><circle r="3" cx="567" cy="807" opacity="0.27"></circle><circle r="3" cx="1" cy="588" opacity="0.27"></circle><circle r="3" cx="191" cy="10" opacity="0.27"></circle><circle r="3" cx="780" cy="170" opacity="0.27"></circle><circle r="3" cx="649" cy="769" opacity="0.26"></circle><circle r="3" cx="42" cy="669" opacity="0.26"></circle><circle r="3" cx="112" cy="55" opacity="0.26"></circle><circle r="3" cx="731" cy="94" opacity="0.26"></circle><circle r="3" cx="723" cy="716" opacity="0.25"></circle><circle r="3" cx="100" cy="740" opacity="0.25"></circle><circle r="3" cx="44" cy="117" opacity="0.25"></circle><circle r="3" cx="666" cy="29" opacity="0.25"></circle><circle r="3" cx="785" cy="647" opacity="0.24"></circle><circle r="3" cx="172" cy="799" opacity="0.24"></circle><circle r="3" cx="-11" cy="192" opacity="0.24"></circle><circle r="3" cx="588" cy="-23" opacity="0.24"></circle><circle r="3" cx="833" cy="567" opacity="0.23"></circle><circle r="3" cx="255" cy="842" opacity="0.23"></circle><circle r="3" cx="-51" cy="277" opacity="0.23"></circle><circle r="3" cx="500" cy="-58" opacity="0.23"></circle><circle r="3" cx="864" cy="477" opacity="0.22"></circle><circle r="3" cx="347" cy="869" opacity="0.22"></circle><circle r="3" cx="-72" cy="370" opacity="0.22"></circle><circle r="3" cx="406" cy="-75" opacity="0.22"></circle><circle r="3" cx="876" cy="381" opacity="0.21"></circle><circle r="3" cx="443" cy="876" opacity="0.21"></circle><circle r="3" cx="-75" cy="467" opacity="0.21"></circle><circle r="3" cx="309" cy="-72" opacity="0.21"></circle><circle r="3" cx="868" cy="284" opacity="0.20"></circle><circle r="3" cx="540" cy="863" opacity="0.20"></circle><circle r="3" cx="-57" cy="564" opacity="0.20"></circle><circle r="3" cx="213" cy="-49" opacity="0.20"></circle><circle r="3" cx="841" cy="190" opacity="0.19"></circle><circle r="3" cx="633" cy="831" opacity="0.19"></circle><circle r="3" cx="-20" cy="656" opacity="0.19"></circle><circle r="3" cx="123" cy="-7" opacity="0.19"></circle><circle r="3" cx="794" cy="101" opacity="0.18"></circle><circle r="3" cx="719" cy="780" opacity="0.18"></circle><circle r="3" cx="36" cy="739" opacity="0.18"></circle><circle r="3" cx="42" cy="53" opacity="0.17"></circle><circle r="3" cx="730" cy="23" opacity="0.17"></circle><circle r="3" cx="794" cy="711" opacity="0.17"></circle><circle r="3" cx="108" cy="811" opacity="0.17"></circle><circle r="3.5" cx="-26" cy="129" opacity="0.16"></circle><circle r="3.5" cx="650" cy="-41" opacity="0.16"></circle><circle r="3.5" cx="854" cy="628" opacity="0.16"></circle><circle r="3.5" cx="195" cy="867" opacity="0.16"></circle><circle r="3.5" cx="-78" cy="218" opacity="0.15"></circle><circle r="3.5" cx="558" cy="-88" opacity="0.15"></circle><circle r="3.5" cx="897" cy="533" opacity="0.15"></circle><circle r="3.5" cx="292" cy="904" opacity="0.15"></circle><circle r="3.5" cx="-111" cy="317" opacity="0.14"></circle><circle r="3.5" cx="457" cy="-116" opacity="0.14"></circle><circle r="3.5" cx="919" cy="431" opacity="0.14"></circle><circle r="3.5" cx="396" cy="922" opacity="0.14"></circle><circle r="3.5" cx="-123" cy="422" opacity="0.13"></circle><circle r="3.5" cx="351" cy="-123" opacity="0.13"></circle><circle r="3.5" cx="921" cy="324" opacity="0.13"></circle><circle r="3.5" cx="502" cy="918" opacity="0.13"></circle><circle r="3.5" cx="-113" cy="529" opacity="0.12"></circle><circle r="3.5" cx="245" cy="-108" opacity="0.12"></circle><circle r="3.5" cx="901" cy="219" opacity="0.12"></circle><circle r="3.5" cx="607" cy="892" opacity="0.12"></circle><circle r="3.5" cx="-82" cy="633" opacity="0.11"></circle><circle r="3.5" cx="143" cy="-71" opacity="0.11"></circle><circle r="3.5" cx="859" cy="118" opacity="0.11"></circle><circle r="3.5" cx="706" cy="845" opacity="0.11"></circle><circle r="3.5" cx="-30" cy="729" opacity="0.10"></circle><circle r="3.5" cx="49" cy="-14" opacity="0.10"></circle></g></svg>